<svg viewBox="0 0 370 108.32297756810024" xmlns="http://www.w3.org/2000/svg" class="navbar-brand-img">
    <defs id="SvgjsDefs5101">
        <linearGradient id="SvgjsLinearGradient5106">
            <stop id="SvgjsStop5107" stop-color="#ef4136" offset="0"></stop>
            <stop id="SvgjsStop5108" stop-color="#fbb040" offset="1"></stop>
        </linearGradient>
    </defs>
    <g id="SvgjsG5102" featurekey="symbolFeature-0" transform="matrix(1.2988115678236443,0,0,1.2988115678236443,-27.343346666796897,-8.181724109277493)" fill="url(#SvgjsLinearGradient5106)">
        <g xmlns="http://www.w3.org/2000/svg" fill="none" stroke="black" font-family="Times New Roman" font-size="16" transform="scale(1 -1)">
            <g transform="translate(0 -96)">
                <g>
                    <path d="M 21.633,34.925 C 24.973,46.855 40.837,53.71 46.922,66.223 C 49.866,72.279 48.49,83.461 43.464,87.939 C 43.197,88.178 42.09,90.326 43.217,89.521 C 54.416,81.327 63.521,70.509 59.309,60.068 C 53.464,45.577 38.409,38.34 38.519,23.585 C 38.566,17.447 43.088,12.523 48.838,7.375 L 49.073,6.299 C 34.143,10.56 17.742,21.028 21.633,34.925 Z M 59.314,18.723 C 67.987,26.524 73.282,31.263 71.043,40.298 C 73.766,36.119 76.295,30.323 74.135,25.806 C 72.203,21.769 70.28,18.956 63.244,15.02 C 59.515,12.935 56.712,10.677 54.37,6.898 C 54.248,10.853 55.011,14.852 59.314,18.723 Z M 49.686,32.153 C 53.003,38.255 57.845,42.622 62.538,48.882 C 65.869,53.325 68.92,60.704 65.731,66.728 L 65.937,67.016 C 70.824,61.556 71.028,52.654 69.495,46.059 C 67.086,35.69 58.5,31.5 53.511,23.918 C 51.557,20.948 50.446,17.311 51,13.5 C 45.461,18.021 46.717,26.69 49.686,32.153 Z" stroke-linejoin="miter" stroke-linecap="round" stroke="none" stroke-width="0.75" fill="url(#SvgjsLinearGradient5106)" marker-start="none" marker-end="none" stroke-miterlimit="79.8403193612775"></path>
                </g>
            </g>
        </g>
    </g>
    <g id="SvgjsG5103" featurekey="nameFeature-0" transform="matrix(4.8112033691386245,0,0,4.8112033691386245,85.42935456251178,-8.86722480315283)" fill="#4a4a4a">
        <path d="M10.93 18.42 c0.11 0.13 0.12 0.28 0.01 0.4 c-0.45 0.51 -1.54 1.34 -3.26 1.34 c-1.99 0 -3.87 -0.81 -3.87 -3.96 l0 -4.45 l-2.56 0 c-0.18 0 -0.3 -0.12 -0.3 -0.3 l0 -0.95 c0 -0.18 0.12 -0.3 0.3 -0.3 l2.56 0 l0 -2.6 c0 -0.18 0.12 -0.3 0.3 -0.3 l1.2 0 c0.18 0 0.3 0.12 0.3 0.3 l0 2.6 l4.16 0 c0.18 0 0.3 0.12 0.3 0.3 l0 0.95 c0 0.18 -0.12 0.3 -0.3 0.3 l-4.16 0 l0 4.32 c0 1.98 1.13 2.45 2.34 2.45 c0.97 0 1.62 -0.42 2.01 -0.75 c0.14 -0.13 0.3 -0.12 0.42 0.02 z M16.5415 9.98 c2.16 0 3.57 1.34 3.57 3.96 l0 5.76 c0 0.18 -0.12 0.3 -0.3 0.3 l-1.2 0 c-0.18 0 -0.3 -0.12 -0.3 -0.3 l0 -5.56 c0 -1.71 -0.86 -2.51 -2.37 -2.51 c-1.87 0 -2.83 1.45 -3.01 2.05 l0 6.02 c0 0.18 -0.12 0.3 -0.3 0.3 l-1.2 0 c-0.18 0 -0.3 -0.12 -0.3 -0.3 l0 -13.4 c0 -0.18 0.12 -0.3 0.3 -0.3 l1.2 0 c0.18 0 0.3 0.12 0.3 0.3 l0 5.55 l0.17 0 c0.58 -0.95 1.74 -1.87 3.44 -1.87 z M25.413 9.98 c2.92 0 4.68 2.27 4.68 4.84 c0 0.71 -0.08 1.05 -0.61 1.05 l-7.25 0 c0.23 1.7 1.58 2.87 3.54 2.87 c1.14 0 1.93 -0.4 2.58 -0.93 c0.15 -0.12 0.27 -0.18 0.43 -0.03 l0.52 0.52 c0.15 0.16 0.17 0.3 0.01 0.46 c-0.96 0.95 -2.19 1.5 -3.73 1.5 c-3.08 0 -5.11 -2.26 -5.11 -5.14 s2.03 -5.14 4.94 -5.14 z M25.413 11.54 c-1.71 0 -2.96 1.2 -3.18 2.95 l6.28 0 c-0.12 -1.72 -1.36 -2.95 -3.1 -2.95 z M39.054500000000004 18.44 c0.18 0 0.3 0.12 0.3 0.3 l0 0.96 c0 0.18 -0.12 0.3 -0.3 0.3 l-8.65 0 c-0.18 0 -0.3 -0.12 -0.3 -0.3 l0 -0.96 c0 -0.18 0.12 -0.3 0.3 -0.3 l3.64 0 l0 -10.89 l-3.42 0 c-0.18 0 -0.3 -0.12 -0.3 -0.3 l0 -0.95 c0 -0.18 0.12 -0.3 0.3 -0.3 l4.92 0 c0.18 0 0.3 0.12 0.3 0.3 l0 12.14 l3.21 0 z M48.986000000000004 18.51 c0.24 0.04 0.35 0.12 0.35 0.36 l0 0.86 c0 0.23 -0.15 0.34 -0.52 0.35 c-1.42 0.05 -2 -0.55 -2 -1.61 l-0.04 0 c-1.18 1.24 -2.94 1.77 -4.32 1.77 c-2.25 0 -3.29 -1.13 -3.29 -2.78 c0 -1.68 1.05 -2.63 3.23 -2.96 l2.77 -0.42 c0.83 -0.12 1.21 -0.23 1.31 -0.45 c-0.02 -1.55 -0.88 -2.1 -2.39 -2.1 c-1.42 0 -2.46 0.39 -2.62 1.52 c-0.02 0.15 -0.11 0.23 -0.29 0.23 l-1.16 0 c-0.18 0 -0.3 -0.1 -0.28 -0.3 c0.23 -2.23 1.94 -3 4.36 -3 c2.88 0 4.13 1.37 4.13 3.63 l0 4.09 c0 0.47 0.25 0.73 0.76 0.81 z M40.976 17.27 c0 0.84 0.53 1.4 1.8 1.4 c1.21 0 2.53 -0.29 3.7 -1.45 l0 -2.26 c-0.09 0.2 -0.41 0.29 -1.1 0.4 l-2.57 0.4 c-1.42 0.22 -1.83 0.75 -1.83 1.51 z M54.6075 9.99 c2.89 0 4.54 2.21 4.54 5.13 s-1.73 5.13 -4.54 5.13 c-1.53 0 -2.65 -0.66 -3.39 -1.63 l-0.08 1.08 c-0.02 0.18 -0.12 0.3 -0.3 0.3 l-1.09 0 c-0.18 0 -0.3 -0.12 -0.3 -0.3 l0 -13.4 c0 -0.18 0.12 -0.3 0.3 -0.3 l1.2 0 c0.18 0 0.3 0.12 0.3 0.3 l0 5.49 l0.19 0 c0.54 -0.99 1.56 -1.8 3.17 -1.8 z M54.2875 18.58 c2.04 0 3.11 -1.43 3.11 -3.48 c0 -2.06 -1.07 -3.44 -3.11 -3.44 c-1.86 0 -3.08 1.38 -3.08 3.44 c0 2.05 1.22 3.48 3.08 3.48 z"></path>
    </g>
</svg>